<svg xmlns="http://www.w3.org/2000/svg" viewBox="0 0 204.89 67.79" width="150" height="50"><defs><style>.cls-1,.cls-3{fill:#dcdaea;}.cls-2{fill:#231f20;}.cls-3{stroke:#231f20;stroke-miterlimit:10;stroke-width:3px;}.cls-4{fill:#f50;}</style></defs><g id="Layer_2" data-name="Layer 2"><g id="boat"><path class="cls-1" d="M31,36.63,27.08,12.51,24.22,9.23a2.57,2.57,0,0,1-.43-2.81,2.6,2.6,0,0,1,2.38-1.58l98.15-1.76L110.86,36.63Zm49.5-8.47h24.44l6.16-17.56H80.45Zm-40.39,0H66.39V10.6H40.06Z" transform="translate(0 -1.54)"/><path class="cls-2" d="M122.09,4.62,109.85,35.13H32.22L28.63,12.7l-.14-.85-.56-.65L25.35,8.25A1.1,1.1,0,0,1,25.16,7a1.12,1.12,0,0,1,1-.69l95.9-1.72M79,29.66h27l.7-2,5.11-14.56,1.39-4H79V29.66m-40.39,0H67.89V9.1H38.56V29.66m88-28.12L26.14,3.34a4.15,4.15,0,0,0-3.05,6.88l2.58,2.95,4,25h82.21L126.56,1.54ZM82,26.66V12.1h27l-5.1,14.56Zm-40.39,0V12.1H64.89V26.66Z" transform="translate(0 -1.54)"/><path class="cls-1" d="M77.8,67.83c-22.37,0-45.45-.92-68.61-2.74L1.9,36.5,201.62,25.93,172.55,62.2A789.38,789.38,0,0,1,77.8,67.83Z" transform="translate(0 -1.54)"/><path class="cls-2" d="M198.36,27.6l-26.6,33.18a789,789,0,0,1-94,5.55c-22,0-44.65-.89-67.41-2.65L3.81,37.9,198.36,27.6m6.53-3.35L0,35.1,8,66.5q34.83,2.77,69.79,2.83a787.6,787.6,0,0,0,95.54-5.71l31.56-39.37Z" transform="translate(0 -1.54)"/><line class="cls-3" x1="194.67" y1="32.59" x2="2.62" y2="43.84"/><path class="cls-4" d="M31.83,62.17A11.67,11.67,0,1,1,43.5,50.5,11.68,11.68,0,0,1,31.83,62.17Zm0-17.55a5.89,5.89,0,1,0,5.89,5.88A5.89,5.89,0,0,0,31.83,44.62Z" transform="translate(0 -1.54)"/><path class="cls-2" d="M31.83,40.34A10.17,10.17,0,1,1,21.66,50.5,10.18,10.18,0,0,1,31.83,40.34m0,17.55a7.39,7.39,0,1,0-7.39-7.39,7.39,7.39,0,0,0,7.39,7.39m0-20.55A13.17,13.17,0,1,0,45,50.5,13.17,13.17,0,0,0,31.83,37.34Zm0,17.55a4.39,4.39,0,1,1,4.39-4.39,4.39,4.39,0,0,1-4.39,4.39Z" transform="translate(0 -1.54)"/></g></g></svg>