<svg xmlns="http://www.w3.org/2000/svg" viewBox="0 0 42.78 142.22" width="20" height="50"><defs><style>.cls-1{fill:#dcdaea;}.cls-2{fill:#231f20;}.cls-3{fill:#565656;}.cls-4{fill:#ffeb31;}</style></defs><g id="Layer_2" data-name="Layer 2"><g id="tank"><path class="cls-1" d="M7.9,140.72a6.41,6.41,0,0,1-6.4-6.4V36.05a19.89,19.89,0,0,1,39.78,0v98.27a6.41,6.41,0,0,1-6.4,6.4Z"/><path class="cls-2" d="M21.39,14.67v3A18.41,18.41,0,0,1,39.78,36.05v98.27a4.91,4.91,0,0,1-4.9,4.9H7.9a4.91,4.91,0,0,1-4.9-4.9V36.05A18.41,18.41,0,0,1,21.39,17.67v-3m0,0h0A21.39,21.39,0,0,0,0,36.05v98.27a7.9,7.9,0,0,0,7.9,7.9h27a7.9,7.9,0,0,0,7.9-7.9V36.05A21.39,21.39,0,0,0,21.39,14.67Z"/><rect class="cls-3" x="18.64" y="1.5" width="5.5" height="12.55"/><path class="cls-2" d="M22.64,3v9.55h-2.5V3h2.5m3-3h-8.5V15.55h8.5V0Z"/><circle class="cls-3" cx="29.19" cy="13.02" r="7.09"/><path class="cls-2" d="M29.19,7.43A5.59,5.59,0,1,1,23.6,13a5.6,5.6,0,0,1,5.59-5.59m0-3A8.59,8.59,0,1,0,37.78,13a8.6,8.6,0,0,0-8.59-8.59Z"/><rect class="cls-4" x="1.6" y="50.39" width="39.08" height="9.89"/><path class="cls-2" d="M39.18,51.89v6.89H3.1V51.89H39.18m3-3H.1V61.78H42.18V48.89Z"/></g></g></svg>